<svg xmlns="http://www.w3.org/2000/svg" width="325" height="43" fill="none" viewBox="0 0 325 43"><path fill="#000" d="M18.375 42.875V36.75H12.25v-6.125H6.125V24.5H0v-6.125h6.125V12.25h6.125V6.125h6.125V0h12.25v6.125H24.5v6.125h-6.125v6.125H12.25V24.5h6.125v6.125H24.5v6.125h6.125v6.125zM85.75 0v6.125h-6.125V0zM73.5 6.125h6.125v6.125H73.5zm-6.125 6.125H73.5v6.125h-6.125zm-6.125 6.125h6.125V24.5H61.25zM55.125 24.5h6.125v6.125h-6.125zM49 30.625h6.125v6.125H49zm-6.125 6.125H49v6.125h-6.125zm49 6.125V0h12.25v18.375H122.5V0h12.25v42.875H122.5V24.5h-18.375v18.375zm67.375 0V6.125H147V0h36.75v6.125H171.5v36.75zm30.625 0V0h12.25v6.125h6.125v6.125h6.125V6.125h6.125V0h12.25v42.875H220.5v-24.5h-6.125v12.25h-6.125v-12.25h-6.125v24.5zm55.125 0V0h12.25v36.75h24.5v6.125zm49 0V36.75h6.125v-6.125h6.125V24.5h6.125v-6.125h-6.125V12.25h-6.125V6.125H294V0h12.25v6.125h6.125v6.125h6.125v6.125h6.125V24.5H318.5v6.125h-6.125v6.125h-6.125v6.125z"/></svg>